<svg width="111" height="161" viewBox="0 0 111 161" fill="none" xmlns="http://www.w3.org/2000/svg">
         <path d="M15.3709 0C6.88237 0 0 6.89978 0 15.4112V145.589C0 154.1 6.88237 161 15.3709 161C23.8594 161 30.7417 154.1 30.7417 145.589V105.426C30.7417 99.7519 35.33 95.1523 40.989 95.1523H64.0453C69.7043 95.1523 74.2925 99.7519 74.2925 105.426V145.589C74.2925 154.1 81.1749 161 89.6634 161C98.1519 161 105.034 154.1 105.034 145.589V84.8782C105.034 73.5299 95.859 64.3299 84.5398 64.3299H40.989C35.33 64.3299 30.7417 59.7303 30.7417 54.0558V15.4112C30.7417 6.89978 23.8594 0 15.3709 0Z" fill="url(#paint0_linear_1443_2590)"/>
         <path d="M87.2083 46.1198C98.5276 46.1198 110.158 31.8965 110.158 20.5482C110.158 9.19992 100.983 0 89.6634 0C78.3441 0 64.2588 9.19992 64.2588 20.5482C64.2588 31.8965 75.8891 46.1198 87.2083 46.1198Z" fill="url(#paint1_linear_1443_2590)"/>
         <defs>
            <linearGradient id="paint0_linear_1443_2590" x1="82.6184" y1="19.6341" x2="37.7025" y2="156.056" gradientUnits="userSpaceOnUse">
               <stop stop-color="#152A47"/>
               <stop offset="1" stop-color="#032555"/>
            </linearGradient>
            <linearGradient id="paint1_linear_1443_2590" x1="82.6184" y1="19.6341" x2="37.7025" y2="156.056" gradientUnits="userSpaceOnUse">
               <stop stop-color="#152A47"/>
               <stop offset="1" stop-color="#032555"/>
            </linearGradient>
         </defs>
      </svg>