<svg width="1440" height="223" viewBox="0 0 1440 223" fill="none" xmlns="http://www.w3.org/2000/svg">
<rect width="1440" height="223" fill="#EEF2FF"/>
<path d="M112 172.5C112 210.332 81.3315 241 43.5 241C5.6685 241 -25 210.332 -25 172.5C-25 134.668 5.6685 104 43.5 104C81.3315 104 112 134.668 112 172.5ZM17.3589 172.5C17.3589 186.937 29.0627 198.641 43.5 198.641C57.9373 198.641 69.6411 186.937 69.6411 172.5C69.6411 158.063 57.9373 146.359 43.5 146.359C29.0627 146.359 17.3589 158.063 17.3589 172.5Z" fill="#E5EBFF"/>
<path d="M846 50C846 68.2254 831.225 83 813 83C794.775 83 780 68.2254 780 50C780 31.7746 794.775 17 813 17C831.225 17 846 31.7746 846 50ZM800.406 50C800.406 56.9552 806.045 62.5935 813 62.5935C819.955 62.5935 825.594 56.9552 825.594 50C825.594 43.0448 819.955 37.4065 813 37.4065C806.045 37.4065 800.406 43.0448 800.406 50Z" fill="#E5EBFF"/>
<path d="M763.5 -3.5L1451 -17V119C1173 325.5 948.5 -32.5 685 -3.5H763.5Z" fill="#E6EBFF"/>
</svg>